<svg width="7" height="11" viewBox="0 0 7 11" fill="" xmlns="http://www.w3.org/2000/svg">
<path fill-rule="evenodd" clip-rule="evenodd" d="M5.70643 0.292787C5.8939 0.480314 5.99922 0.734622 5.99922 0.999786C5.99922 1.26495 5.8939 1.51926 5.70643 1.70679L2.41343 4.99979L5.70643 8.29279C5.80194 8.38503 5.87812 8.49538 5.93053 8.61738C5.98294 8.73939 6.01053 8.87061 6.01168 9.00339C6.01283 9.13616 5.98753 9.26784 5.93725 9.39074C5.88697 9.51364 5.81272 9.62529 5.71883 9.71918C5.62493 9.81307 5.51328 9.88733 5.39038 9.93761C5.26749 9.98789 5.13581 10.0132 5.00303 10.012C4.87025 10.0109 4.73903 9.9833 4.61703 9.93089C4.49502 9.87848 4.38468 9.8023 4.29243 9.70679L0.292431 5.70679C0.10496 5.51926 -0.000355951 5.26495 -0.000355939 4.99979C-0.000355927 4.73462 0.10496 4.48031 0.292431 4.29279L4.29243 0.292787C4.47996 0.105315 4.73427 -5.58392e-08 4.99943 -4.42485e-08C5.26459 -3.26578e-08 5.5189 0.105316 5.70643 0.292787Z" fill=""/>
</svg>
